<svg width="914" height="496" viewBox="0 0 914 496" fill="none" xmlns="http://www.w3.org/2000/svg">
<rect x="2.5" y="2.5" width="909" height="491" rx="49.5" fill="white" stroke="black" stroke-width="5"/>
<path d="M3 50.5906L450.099 347.081C452.768 348.852 456.237 348.859 458.913 347.1L911 50" stroke="black" stroke-width="4"/>
<path d="M394.447 95.576C397.391 97.272 398.863 99.832 398.863 103.256C398.863 106.104 397.855 108.44 395.839 110.264C393.823 112.088 391.343 113 388.399 113H374.143V79.4H387.391C390.271 79.4 392.687 80.296 394.639 82.088C396.623 83.848 397.615 86.104 397.615 88.856C397.615 91.64 396.559 93.88 394.447 95.576ZM387.391 85.592H380.767V92.984H387.391C388.415 92.984 389.263 92.632 389.935 91.928C390.639 91.224 390.991 90.344 390.991 89.288C390.991 88.232 390.655 87.352 389.983 86.648C389.311 85.944 388.447 85.592 387.391 85.592ZM388.399 106.808C389.519 106.808 390.447 106.44 391.183 105.704C391.919 104.936 392.287 103.976 392.287 102.824C392.287 101.704 391.919 100.776 391.183 100.04C390.447 99.272 389.519 98.888 388.399 98.888H380.767V106.808H388.399ZM409.11 93.128C409.686 91.592 410.63 90.44 411.942 89.672C413.286 88.904 414.774 88.52 416.406 88.52V95.432C414.518 95.208 412.822 95.592 411.318 96.584C409.846 97.576 409.11 99.224 409.11 101.528V113H402.918V89H409.11V93.128ZM435.867 89H442.059V113H435.867V110.312C434.363 112.552 431.979 113.672 428.715 113.672C426.091 113.672 423.915 112.792 422.187 111.032C420.491 109.272 419.643 106.84 419.643 103.736V89H425.835V102.968C425.835 104.568 426.267 105.8 427.131 106.664C427.995 107.496 429.147 107.912 430.587 107.912C432.187 107.912 433.467 107.416 434.427 106.424C435.387 105.432 435.867 103.944 435.867 101.96V89ZM461.074 88.328C463.698 88.328 465.858 89.208 467.554 90.968C469.282 92.728 470.146 95.16 470.146 98.264V113H463.954V99.032C463.954 97.432 463.522 96.216 462.658 95.384C461.794 94.52 460.642 94.088 459.202 94.088C457.602 94.088 456.322 94.584 455.362 95.576C454.402 96.568 453.922 98.056 453.922 100.04V113H447.73V89H453.922V91.688C455.426 89.448 457.81 88.328 461.074 88.328ZM495.882 110.024C493.418 112.456 490.41 113.672 486.858 113.672C483.306 113.672 480.298 112.456 477.834 110.024C475.402 107.56 474.186 104.552 474.186 101C474.186 97.448 475.402 94.456 477.834 92.024C480.298 89.56 483.306 88.328 486.858 88.328C490.41 88.328 493.418 89.56 495.882 92.024C498.346 94.456 499.578 97.448 499.578 101C499.578 104.552 498.346 107.56 495.882 110.024ZM482.202 105.752C483.45 107 485.002 107.624 486.858 107.624C488.714 107.624 490.266 107 491.514 105.752C492.762 104.504 493.386 102.92 493.386 101C493.386 99.08 492.762 97.496 491.514 96.248C490.266 95 488.714 94.376 486.858 94.376C485.002 94.376 483.45 95 482.202 96.248C480.986 97.496 480.378 99.08 480.378 101C480.378 102.92 480.986 104.504 482.202 105.752ZM502.482 90.44L501.666 79.4H507.522L506.706 90.44H502.482ZM516.208 95.816C516.208 96.456 516.624 96.984 517.456 97.4C518.32 97.784 519.36 98.136 520.576 98.456C521.792 98.744 523.008 99.128 524.224 99.608C525.44 100.056 526.464 100.824 527.296 101.912C528.16 103 528.592 104.36 528.592 105.992C528.592 108.456 527.664 110.36 525.808 111.704C523.984 113.016 521.696 113.672 518.944 113.672C514.016 113.672 510.656 111.768 508.864 107.96L514.24 104.936C514.944 107.016 516.512 108.056 518.944 108.056C521.152 108.056 522.256 107.368 522.256 105.992C522.256 105.352 521.824 104.84 520.96 104.456C520.128 104.04 519.104 103.672 517.888 103.352C516.672 103.032 515.456 102.632 514.24 102.152C513.024 101.672 511.984 100.92 511.12 99.896C510.288 98.84 509.872 97.528 509.872 95.96C509.872 93.592 510.736 91.736 512.464 90.392C514.224 89.016 516.4 88.328 518.992 88.328C520.944 88.328 522.72 88.776 524.32 89.672C525.92 90.536 527.184 91.784 528.112 93.416L522.832 96.296C522.064 94.664 520.784 93.848 518.992 93.848C518.192 93.848 517.52 94.024 516.976 94.376C516.464 94.728 516.208 95.208 516.208 95.816ZM323.572 154.576C326.516 156.272 327.988 158.832 327.988 162.256C327.988 165.104 326.98 167.44 324.964 169.264C322.948 171.088 320.468 172 317.524 172H303.268V138.4H316.516C319.396 138.4 321.812 139.296 323.764 141.088C325.748 142.848 326.74 145.104 326.74 147.856C326.74 150.64 325.684 152.88 323.572 154.576ZM316.516 144.592H309.892V151.984H316.516C317.54 151.984 318.388 151.632 319.06 150.928C319.764 150.224 320.116 149.344 320.116 148.288C320.116 147.232 319.78 146.352 319.108 145.648C318.436 144.944 317.572 144.592 316.516 144.592ZM317.524 165.808C318.644 165.808 319.572 165.44 320.308 164.704C321.044 163.936 321.412 162.976 321.412 161.824C321.412 160.704 321.044 159.776 320.308 159.04C319.572 158.272 318.644 157.888 317.524 157.888H309.892V165.808H317.524ZM335.115 145.12C334.091 145.12 333.195 144.752 332.427 144.016C331.691 143.248 331.323 142.352 331.323 141.328C331.323 140.304 331.691 139.408 332.427 138.64C333.195 137.872 334.091 137.488 335.115 137.488C336.171 137.488 337.067 137.872 337.803 138.64C338.571 139.408 338.955 140.304 338.955 141.328C338.955 142.352 338.571 143.248 337.803 144.016C337.067 144.752 336.171 145.12 335.115 145.12ZM332.043 172V148H338.235V172H332.043ZM350.094 152.128C350.67 150.592 351.614 149.44 352.926 148.672C354.27 147.904 355.758 147.52 357.39 147.52V154.432C355.502 154.208 353.806 154.592 352.302 155.584C350.83 156.576 350.094 158.224 350.094 160.528V172H343.902V148H350.094V152.128ZM375.396 153.952H369.972V163.936C369.972 164.768 370.18 165.376 370.596 165.76C371.012 166.144 371.62 166.368 372.42 166.432C373.22 166.464 374.212 166.448 375.396 166.384V172C371.14 172.48 368.132 172.08 366.372 170.8C364.644 169.52 363.78 167.232 363.78 163.936V153.952H359.604V148H363.78V143.152L369.972 141.28V148H375.396V153.952ZM393.106 147.328C395.73 147.328 397.89 148.208 399.586 149.968C401.314 151.728 402.178 154.16 402.178 157.264V172H395.986V158.032C395.986 156.432 395.554 155.216 394.69 154.384C393.826 153.52 392.674 153.088 391.234 153.088C389.634 153.088 388.354 153.584 387.394 154.576C386.434 155.568 385.954 157.056 385.954 159.04V172H379.762V138.4H385.954V150.688C387.458 148.448 389.842 147.328 393.106 147.328ZM425.657 138.4H431.849V172H425.657V169.168C423.833 171.504 421.241 172.672 417.881 172.672C414.649 172.672 411.881 171.456 409.577 169.024C407.305 166.56 406.169 163.552 406.169 160C406.169 156.448 407.305 153.456 409.577 151.024C411.881 148.56 414.649 147.328 417.881 147.328C421.241 147.328 423.833 148.496 425.657 150.832V138.4ZM414.233 164.896C415.513 166.144 417.113 166.768 419.033 166.768C420.953 166.768 422.537 166.144 423.785 164.896C425.033 163.616 425.657 161.984 425.657 160C425.657 158.016 425.033 156.4 423.785 155.152C422.537 153.872 420.953 153.232 419.033 153.232C417.113 153.232 415.513 153.872 414.233 155.152C412.985 156.4 412.361 158.016 412.361 160C412.361 161.984 412.985 163.616 414.233 164.896ZM455.752 148H461.944V172H455.752V169.168C453.896 171.504 451.288 172.672 447.928 172.672C444.728 172.672 441.976 171.456 439.672 169.024C437.4 166.56 436.264 163.552 436.264 160C436.264 156.448 437.4 153.456 439.672 151.024C441.976 148.56 444.728 147.328 447.928 147.328C451.288 147.328 453.896 148.496 455.752 150.832V148ZM444.328 164.896C445.576 166.144 447.16 166.768 449.08 166.768C451 166.768 452.584 166.144 453.832 164.896C455.112 163.616 455.752 161.984 455.752 160C455.752 158.016 455.112 156.4 453.832 155.152C452.584 153.872 451 153.232 449.08 153.232C447.16 153.232 445.576 153.872 444.328 155.152C443.08 156.4 442.456 158.016 442.456 160C442.456 161.984 443.08 163.616 444.328 164.896ZM483.207 148H489.831L481.095 172C479.847 175.456 478.183 177.952 476.103 179.488C474.055 181.056 471.495 181.76 468.423 181.6V175.84C470.087 175.872 471.399 175.52 472.359 174.784C473.351 174.048 474.135 172.864 474.711 171.232L464.871 148H471.639L477.879 164.128L483.207 148ZM521.001 172.672C515.945 172.672 511.769 170.992 508.473 167.632C505.177 164.272 503.529 160.128 503.529 155.2C503.529 150.24 505.177 146.096 508.473 142.768C511.769 139.408 515.945 137.728 521.001 137.728C524.041 137.728 526.841 138.448 529.401 139.888C531.993 141.296 534.009 143.216 535.449 145.648L529.737 148.96C528.905 147.456 527.721 146.288 526.185 145.456C524.649 144.592 522.921 144.16 521.001 144.16C517.737 144.16 515.097 145.184 513.081 147.232C511.097 149.28 510.105 151.936 510.105 155.2C510.105 158.432 511.097 161.072 513.081 163.12C515.097 165.168 517.737 166.192 521.001 166.192C522.921 166.192 524.649 165.776 526.185 164.944C527.753 164.08 528.937 162.912 529.737 161.44L535.449 164.752C534.009 167.184 532.009 169.12 529.449 170.56C526.889 171.968 524.073 172.672 521.001 172.672ZM557.611 148H563.803V172H557.611V169.168C555.755 171.504 553.147 172.672 549.787 172.672C546.587 172.672 543.835 171.456 541.531 169.024C539.259 166.56 538.123 163.552 538.123 160C538.123 156.448 539.259 153.456 541.531 151.024C543.835 148.56 546.587 147.328 549.787 147.328C553.147 147.328 555.755 148.496 557.611 150.832V148ZM546.187 164.896C547.435 166.144 549.019 166.768 550.939 166.768C552.859 166.768 554.443 166.144 555.691 164.896C556.971 163.616 557.611 161.984 557.611 160C557.611 158.016 556.971 156.4 555.691 155.152C554.443 153.872 552.859 153.232 550.939 153.232C549.019 153.232 547.435 153.872 546.187 155.152C544.939 156.4 544.315 158.016 544.315 160C544.315 161.984 544.939 163.616 546.187 164.896ZM575.61 152.128C576.186 150.592 577.13 149.44 578.442 148.672C579.786 147.904 581.274 147.52 582.906 147.52V154.432C581.018 154.208 579.322 154.592 577.818 155.584C576.346 156.576 575.61 158.224 575.61 160.528V172H569.418V148H575.61V152.128ZM603.829 138.4H610.021V172H603.829V169.168C602.005 171.504 599.413 172.672 596.053 172.672C592.821 172.672 590.053 171.456 587.749 169.024C585.477 166.56 584.341 163.552 584.341 160C584.341 156.448 585.477 153.456 587.749 151.024C590.053 148.56 592.821 147.328 596.053 147.328C599.413 147.328 602.005 148.496 603.829 150.832V138.4ZM592.405 164.896C593.685 166.144 595.285 166.768 597.205 166.768C599.125 166.768 600.709 166.144 601.957 164.896C603.205 163.616 603.829 161.984 603.829 160C603.829 158.016 603.205 156.4 601.957 155.152C600.709 153.872 599.125 153.232 597.205 153.232C595.285 153.232 593.685 153.872 592.405 155.152C591.157 156.4 590.533 158.016 590.533 160C590.533 161.984 591.157 163.616 592.405 164.896Z" fill="black"/>
</svg>
